<svg xmlns="http://www.w3.org/2000/svg" version="1.1" fill="white" viewBox="-5.0 -10.0 110.0 135.0">
 <path fill="#321F26" d="m64.902 30.566c-5.5469-0.019531-10.98 1.5781-15.637 4.5938-2.6367-1.4961-5.4961-2.5625-8.4688-3.1562-0.015625 0.007813 10.562-12.711 10.559-12.707 0.46094-0.58594 0.46094-1.4102 0.003906-1.9961l-4.875-5.875c-0.29688-0.35938-0.73828-0.56641-1.2031-0.56641h-19.5c-0.46484 0-0.90625 0.20703-1.2031 0.56641l-4.875 5.875h0.003906c-0.46484 0.58594-0.46484 1.4141 0 1.9961l10.449 12.551c-6.6875 1.1719-12.75 4.6641-17.125 9.8594-4.3711 5.1992-6.7695 11.77-6.7773 18.559-0.30078 22.484 25.785 36.703 44.449 24.23 18.633 11.02 43.43-3.418 43.043-25.094v0.003906c-0.007813-7.6445-3.0508-14.977-8.457-20.383s-12.738-8.4492-20.387-8.457zm0 52.777c-3.4336-0.003906-6.8281-0.74609-9.9492-2.1719 5.5195-5.2461 8.7383-12.461 8.957-20.074 0.21484-7.6094-2.5898-14.996-7.8008-20.547-1.5273 0.70703-2.9609 1.5977-4.2656 2.6562 9.5859 8.918 9.4609 25.469-0.17188 34.309-14.879 14.57-40.656 3.6602-40.512-17.25-0.37891-17.027 18.598-29.16 33.871-21.746-5.5195 5.2422-8.7383 12.457-8.957 20.062-0.21484 7.6094 2.5898 14.996 7.8008 20.543 1.5195-0.71484 2.9492-1.5977 4.2656-2.6406-4.6055-4.4844-7.1992-10.648-7.1875-17.078 0.042969-6.3359 2.5781-12.406 7.0625-16.891 4.4805-4.4805 10.551-7.0195 16.891-7.0586 31.738 1.3125 31.758 46.578-0.003906 47.887zm-29.355-51.922-4.25-11.562h8.5938zm7.6797-11.562h3.6055l-6.5742 7.8984zm-10.113-3.125 2.4297-2.2031 2.4883 2.2031zm-5.1445 3.1211 2.9414 8.0078c0.007813 0.019531-6.6719-8.0117-6.668-8.0078zm18.859-3.125h-4.0859l-3.0977-2.7461h4.9023zm-20.312-2.7461h4.9766l-3.0312 2.7461h-4.2227z"/>
</svg>